<svg viewBox="0 0 32 32" xmlns="http://www.w3.org/2000/svg" xml:space="preserve" style="fill-rule:evenodd;clip-rule:evenodd;stroke-linejoin:round;stroke-miterlimit:2"><path style="fill:#002c3e" d="M3.686 4.346h15.775v8.853H3.686z" transform="matrix(2.02858 0 0 3.61454 -7.4776 -15.7091)"/><path d="M15.56 11.87H7.7a.9194.9194 0 0 1-.7-.27.8771.8771 0 0 1-.2-.36 1.295 1.295 0 0 1 0-.66c.131-.529.438-.998.87-1.33.261-.23.546-.432.85-.6l.21-.12c-.359-.09-.73-.123-1.1-.1-.556.052-1.098.204-1.6.45-.265.135-.517.296-.75.48-.3.24-.57.5-.57.5l-.49.46c-.156.142-.319.276-.49.4-.324.255-.685.461-1.07.61-.105.031-.212.055-.32.07a.8711.8711 0 0 1-.69-.18.7707.7707 0 0 1-.16-.74c.084-.321.262-.61.51-.83l.21-.19c.176-.15.363-.287.56-.41l.37-.23a3.622 3.622 0 0 0-2.11.41c-.338.192-.642.439-.9.73-.158-.459-.203-.95-.13-1.43C.232 7.065 1.517 5.982 3 6h.3c.209-1.528 1.528-2.679 3.07-2.68.426 0 .848.085 1.24.25 1.14.491 1.881 1.619 1.88 2.86v.08c-.004.321-.061.638-.17.94.18.049.354.116.52.2.429.222.778.571 1 1 .212.418.315.882.3 1.35.009.339-.038.677-.14 1 .588-.588 1.4-.897 2.23-.85.738.085 1.419.442 1.91 1 .179.215.321.458.42.72Z" style="fill:#f0981b;fill-rule:nonzero" transform="matrix(1.74623 0 0 1.74623 2.0259 1.7363)"/><path d="M11.82 9.69c.068-.484.006-.978-.18-1.43a2.903 2.903 0 0 0-1.38-1.46 3.137 3.137 0 0 1 1.4-1.27c.944-.378 2.011-.3 2.89.21.903.579 1.45 1.58 1.45 2.652 0 .647-.199 1.278-.57 1.808a3 3 0 0 0-2-.93c-.566-.02-1.126.126-1.61.42Z" style="fill:#fff;fill-rule:nonzero" transform="matrix(1.74623 0 0 1.74623 2.0259 1.7363)"/></svg>