<?xml version="1.0" encoding="utf-8"?><svg xmlns="http://www.w3.org/2000/svg"><symbol viewBox="0 0 16 16" id="icon-1-column" xmlns="http://www.w3.org/2000/svg"><rect x="1" y="1" width="14" height="6" rx="1"/><rect x="1" y="9" width="14" height="6" rx="1"/></symbol><symbol viewBox="0 0 16 16" id="icon-2-column" xmlns="http://www.w3.org/2000/svg"><rect x="1" y="1" width="6" height="6" rx="1"/><rect x="1" y="9" width="6" height="6" rx="1"/><rect x="9" y="1" width="6" height="6" rx="1"/><rect x="9" y="9" width="6" height="6" rx="1"/></symbol><symbol viewBox="0 0 16 16" id="icon-3-column" xmlns="http://www.w3.org/2000/svg"><rect x="1.5" y="9" width="3" height="6" rx="1"/><rect x="1.5" y="1" width="3" height="6" rx="1"/><rect x="6.5" y="9" width="3" height="6" rx="1"/><rect x="6.5" y="1" width="3" height="6" rx="1"/><rect x="11.5" y="9" width="3" height="6" rx="1"/><rect x="11.5" y="1" width="3" height="6" rx="1"/></symbol><symbol viewBox="0 0 16 16" id="icon-4-column" xmlns="http://www.w3.org/2000/svg"><rect x="1" y="1" width="2" height="6" rx="1"/><rect x="1" y="9" width="2" height="6" rx="1"/><rect x="5" y="1" width="2" height="6" rx="1"/><rect x="5" y="9" width="2" height="6" rx="1"/><rect x="9" y="1" width="2" height="6" rx="1"/><rect x="9" y="9" width="2" height="6" rx="1"/><rect x="13" y="1" width="2" height="6" rx="1"/><rect x="13" y="9" width="2" height="6" rx="1"/></symbol><symbol viewBox="0 0 16 16" id="icon-alert" xmlns="http://www.w3.org/2000/svg"><path d="M8.5 1.634A1 1 0 018.866 2l6.268 10.853a1 1 0 01-.366 1.366 1 1 0 01-.5.134H1.732a1 1 0 01-1-1 1 1 0 01.134-.5L7.134 2A1 1 0 018.5 1.634zM8 10.5A1.25 1.25 0 108 13a1.25 1.25 0 000-2.5zm0-6a1.25 1.25 0 00-1.244 1.122l-.006.128v2.5a1.25 1.25 0 002.494.128l.006-.128v-2.5c0-.69-.56-1.25-1.25-1.25z"/></symbol><symbol viewBox="0 0 16 16" fill-rule="evenodd" clip-rule="evenodd" stroke-linejoin="round" stroke-miterlimit="2" id="icon-arrow" xmlns="http://www.w3.org/2000/svg"><path d="M9 10.586V3a1 1 0 00-2 0v7.586L5.173 8.758a1 1 0 00-1.414 1.414l3.535 3.536a1 1 0 001.414 0l3.536-3.536a1 1 0 00-1.414-1.414L9 10.586z"/></symbol><symbol viewBox="0 0 16 16" fill-rule="evenodd" clip-rule="evenodd" stroke-linejoin="round" stroke-miterlimit="2" id="icon-arrow-diagonal" xmlns="http://www.w3.org/2000/svg"><path d="M0 0h16v16H0z" fill="none"/><path d="M9.586 5l-5.81 5.81a.997.997 0 000 1.414.997.997 0 001.415 0L11 6.415V9a1 1 0 002 0V4c0-.55-.448-1-1-1H7a1.001 1.001 0 000 2h2.586z"/></symbol><symbol viewBox="0 0 16 16" id="icon-atom" xmlns="http://www.w3.org/2000/svg"><path d="M3.75.639c2.391-1.381 6.233.796 8.58 4.861 2.347 4.066 2.311 8.48-.08 9.861-2.392 1.38-6.233-.796-8.58-4.861-2.347-4.066-2.311-8.48.08-9.861zm.5.866C2.337 2.609 2.465 6.413 4.536 10c2.07 3.587 5.3 5.6 7.214 4.495 1.913-1.104 1.785-4.908-.286-8.495-2.07-3.587-5.3-5.6-7.214-4.495z"/><path d="M5.5 3.67c4.066-2.347 8.48-2.311 9.861.08 1.38 2.392-.796 6.233-4.861 8.58-4.066 2.347-8.48 2.311-9.861-.08-1.381-2.392.796-6.233 4.861-8.58zm.5.866c-3.587 2.07-5.6 5.3-4.495 7.214 1.104 1.913 4.908 1.785 8.495-.286 3.587-2.07 5.6-5.3 4.495-7.214C13.391 2.337 9.587 2.465 6 4.536z"/><circle cx="8" cy="8" r="2.5"/></symbol><symbol viewBox="0 0 16 16" fill-rule="evenodd" clip-rule="evenodd" stroke-linejoin="round" stroke-miterlimit="2" id="icon-attachment" xmlns="http://www.w3.org/2000/svg"><path d="M0 0h16v16.001H0z" fill="none"/><path d="M10.328.923a3 3 0 014.228 4.256l.012.01-6.187 6.189-.012-.012a2.251 2.251 0 01-3.182-3.182l4.066-4.066.707.708L5.894 8.89a1.25 1.25 0 001.768 1.768l.012.01 6.187-6.186-.012-.011a2 2 0 10-2.828-2.828l-8.662 8.662a2.752 2.752 0 000 3.889 2.752 2.752 0 003.889 0l6.54-6.541.708.707-6.541 6.54a3.75 3.75 0 01-5.303-5.303L10.314.937l.014-.013z"/></symbol><symbol viewBox="0 0 16 16" fill-rule="evenodd" clip-rule="evenodd" stroke-linejoin="round" stroke-miterlimit="2" id="icon-bell" xmlns="http://www.w3.org/2000/svg"><path d="M0 .001h16v16H0z" fill="none"/><path d="M11.94 2.877a1.004 1.004 0 01.272-.504 1 1 0 011.414 1.414.996.996 0 01-.504.273c1.354 1.741.926 3.336-.871 5.166-2.038 2.076-2.28 4.04-1.881 4.921.22.485-.264.969-.69.543L1.31 6.32c-.427-.427.058-.91.543-.69.88.398 2.845.156 4.92-1.883 1.83-1.797 3.426-2.224 5.167-.87zm-5.738 9.75a2 2 0 01-2.829-2.83l2.829 2.83z"/></symbol><symbol viewBox="0 0 24 24" fill-rule="evenodd" clip-rule="evenodd" stroke-linejoin="round" stroke-miterlimit="2" id="icon-bell--empty" xmlns="http://www.w3.org/2000/svg"><path d="M15.954 6.892a1.004 1.004 0 01.272-.504 1 1 0 011.415 1.414.996.996 0 01-.505.272c1.355 1.742.927 3.336-.87 5.166-2.039 2.076-2.281 4.042-1.882 4.922.22.484-.264.969-.69.542l-8.369-8.368c-.427-.428.058-.911.542-.691.88.399 2.846.157 4.921-1.882 1.83-1.797 3.425-2.224 5.166-.871zm-.92 1.184c.188.146.772.73.919.919.3.387.48.744.48 1.118-.002.69-.5 1.326-1.238 2.076-1.256 1.28-1.929 2.551-2.235 3.66L8.18 11.069c1.11-.305 2.38-.978 3.66-2.235.75-.736 1.387-1.235 2.077-1.237.374-.001.731.18 1.118.48zm-4.818 8.565a2 2 0 01-2.828-2.828l2.828 2.828z"/></symbol><symbol viewBox="0 0 24 24" fill-rule="evenodd" clip-rule="evenodd" stroke-linejoin="round" stroke-miterlimit="2" id="icon-bell--existing" xmlns="http://www.w3.org/2000/svg"><path d="M15.954 6.892a1.004 1.004 0 01.272-.504 1 1 0 011.415 1.414.996.996 0 01-.505.272c1.355 1.742.927 3.336-.87 5.166-2.039 2.076-2.281 4.042-1.882 4.922.22.484-.264.969-.69.542l-8.369-8.368c-.427-.428.058-.911.542-.691.88.399 2.846.157 4.921-1.882 1.83-1.797 3.425-2.224 5.166-.871zm-5.738 9.75a2 2 0 01-2.828-2.829l2.828 2.828z"/></symbol><symbol viewBox="0 0 24 24" fill-rule="evenodd" clip-rule="evenodd" stroke-linejoin="round" stroke-miterlimit="2" id="icon-bell--new" xmlns="http://www.w3.org/2000/svg"><g class="amicon__rings"><path d="M10.312.144a.746.746 0 01.875.491.014.014 0 01.008.01.747.747 0 01-.057.604.75.75 0 01-.485.363 6.891 6.891 0 00-3.239 1.832A6.956 6.956 0 005.577 6.68a.75.75 0 01-.36.48.742.742 0 01-.598.056c-.006.007-.01.005-.015.004a.75.75 0 01-.494-.881 8.51 8.51 0 012.243-3.957A8.459 8.459 0 0110.312.144z"/><path d="M6.984 8.014a.75.75 0 01-.5-.85A6.038 6.038 0 018.121 4.15a5.968 5.968 0 013.014-1.63.743.743 0 01.844.495c.009.005.01.011.013.019a.752.752 0 01-.065.616.755.755 0 01-.506.357A4.348 4.348 0 009.18 5.21a4.484 4.484 0 00-1.217 2.236.732.732 0 01-.35.497.732.732 0 01-.604.063c-.012.012-.019.01-.026.007zm9.791 11.37a.747.747 0 01.058-.603.75.75 0 01.485-.364 6.893 6.893 0 003.238-1.831 6.959 6.959 0 001.838-3.238.747.747 0 01.36-.48.746.746 0 01.598-.057c.006-.005.01-.004.014-.003a.75.75 0 01.494.881 8.506 8.506 0 01-2.243 3.957 8.455 8.455 0 01-3.958 2.238.745.745 0 01-.876-.49.014.014 0 01-.008-.01z"/><path d="M15.978 16.994a.754.754 0 01.065-.616.753.753 0 01.507-.357 4.35 4.35 0 002.239-1.203 4.481 4.481 0 001.217-2.236.735.735 0 01.35-.497.737.737 0 01.605-.063c.012-.012.018-.01.025-.007a.75.75 0 01.5.85 6.037 6.037 0 01-1.637 3.014 5.968 5.968 0 01-3.014 1.63.742.742 0 01-.842-.496c-.01-.004-.012-.011-.015-.019z"/></g></symbol><symbol viewBox="0 0 16 16" id="icon-blank" xmlns="http://www.w3.org/2000/svg"/><symbol viewBox="0 0 16 16" fill-rule="evenodd" clip-rule="evenodd" stroke-linejoin="round" stroke-miterlimit="2" id="icon-card" xmlns="http://www.w3.org/2000/svg"><g transform="matrix(.18522 0 0 .25394 -21.553 -59.354)"><path d="M116.362 233.74h86.382v63.008h-86.382z" fill="none"/><clipPath id="aoa"><path d="M116.362 233.74h86.382v63.008h-86.382z"/></clipPath><g clip-path="url(#aoa)"><path d="M202.747 249.492c0-2.174-2.42-3.938-5.397-3.938h-75.585c-2.984 0-5.404 1.764-5.404 3.938v4.05h86.386v-4.05zm-.002 11.935v19.568c0 2.178-2.418 3.938-5.399 3.938h-75.584c-2.986 0-5.399-1.76-5.399-3.938v-19.568h86.382zm-56.688 13.661h-21.596v3.938h21.596v-3.938zm21.596-7.876H124.46v3.938h43.192v-3.938z"/></g></g></symbol><symbol viewBox="0 0 16 16" id="icon-chart" xmlns="http://www.w3.org/2000/svg"><path d="M2 1a1 1 0 011 1v11h12a1 1 0 110 2H2a1 1 0 01-1-1V2a1 1 0 011-1z"/><path d="M5 7h1a1 1 0 011 1v4H4V8a1 1 0 011-1zm4-4h1a1 1 0 011 1v8H8V4a1 1 0 011-1zm4 2h1a1 1 0 011 1v6h-3V6a1 1 0 011-1z"/></symbol><symbol viewBox="0 0 16 16" fill-rule="evenodd" clip-rule="evenodd" stroke-linejoin="round" stroke-miterlimit="2" id="icon-clock" xmlns="http://www.w3.org/2000/svg"><path d="M0 .001h16v16H0z" fill="none"/><path d="M8 1c3.863 0 7 3.137 7 7 0 3.864-3.137 7-7 7s-7-3.136-7-7c0-3.863 3.137-7 7-7zm-.75 2.25v5.5h4c.199 0 .39-.08.53-.22a.747.747 0 000-1.06.747.747 0 00-.53-.22h-2.5v-4a.75.75 0 00-1.5 0z"/></symbol><symbol viewBox="0 0 16 16" fill-rule="evenodd" clip-rule="evenodd" stroke-linejoin="round" stroke-miterlimit="2" id="icon-cloud" xmlns="http://www.w3.org/2000/svg"><g transform="matrix(.18522 0 0 .25394 -21.553 -59.355)"><path d="M116.362 233.74h86.382v63.008h-86.382z" fill="none"/><clipPath id="ara"><path d="M116.362 233.74h86.382v63.008h-86.382z"/></clipPath><g clip-path="url(#ara)"><path d="M132.648 282.966h-.092c-8.94 0-16.197-5.293-16.197-11.814 0-6.522 7.256-11.814 16.197-11.814.767 0 1.522.039 2.262.114.578-6.136 7.596-10.991 16.154-10.991 8.357 0 15.246 4.623 16.11 10.554 2.521-1.182 5.517-1.867 8.735-1.867 8.94 0 16.197 5.293 16.197 11.814 0 .48-.038.957-.114 1.426.67-.122 1.372-.185 2.095-.185 4.827 0 8.746 2.859 8.746 6.38 0 3.346-3.536 6.091-8.028 6.359v.024h-62.066z"/></g></g></symbol><symbol viewBox="0 0 16 16" fill-rule="evenodd" clip-rule="evenodd" stroke-linejoin="round" stroke-miterlimit="2" id="icon-collapse" xmlns="http://www.w3.org/2000/svg"><g transform="matrix(.18522 0 0 .25394 -21.553 -59.355)"><path d="M116.362 233.74h86.382v63.008h-86.382z" fill="none"/><clipPath id="asa"><path d="M116.362 233.74h86.382v63.008h-86.382z"/></clipPath><g clip-path="url(#asa)"><path d="M171.074 291.85c2.07 1.535 5.464 1.56 7.572.05 2.104-1.508 2.134-3.986.065-5.521l-15.407-11.43c-2.07-1.536-5.463-1.554-7.567-.047-2.108 1.51-2.138 3.982-.069 5.518l15.406 11.43z"/><path d="M140.496 291.437c2.089 1.55 5.51 1.57 7.633.05l15.208-10.896c2.127-1.524 2.157-4.018.069-5.567l-.07-.051c-2.088-1.55-5.509-1.571-7.636-.047l-15.207 10.895c-2.123 1.521-2.154 4.016-.065 5.565l.068.051z"/><path d="M165.14 277.225v19.69h-10.8v-19.69zm-17.091-38.443c-2.07-1.535-5.464-1.56-7.572-.05-2.104 1.508-2.134 3.986-.065 5.521l15.407 11.43c2.07 1.536 5.463 1.554 7.567.047 2.108-1.51 2.138-3.982.069-5.518l-15.406-11.43z"/><path d="M178.627 239.195c-2.089-1.55-5.51-1.57-7.633-.05l-15.208 10.896c-2.127 1.524-2.157 4.018-.069 5.567l.07.051c2.088 1.55 5.509 1.571 7.636.047l15.207-10.895c2.123-1.521 2.154-4.016.065-5.565l-.068-.051z"/><path d="M153.985 253.408v-19.69h10.8v19.69z"/><ellipse cx="405.734" cy="5.445" rx="1.306" ry=".915" transform="matrix(4.13424 0 0 4.30482 -1550.24 241.803)"/><ellipse cx="405.734" cy="5.445" rx="1.306" ry=".915" transform="matrix(4.13424 0 0 4.30482 -1534.05 241.803)"/><ellipse cx="405.734" cy="5.445" rx="1.306" ry=".915" transform="matrix(4.13424 0 0 4.30482 -1517.85 241.803)"/><ellipse cx="405.734" cy="5.445" rx="1.306" ry=".915" transform="matrix(4.13424 0 0 4.30482 -1501.65 241.803)"/><ellipse cx="405.734" cy="5.445" rx="1.306" ry=".915" transform="matrix(4.13424 0 0 4.30482 -1485.46 241.803)"/></g></g></symbol><symbol viewBox="0 0 16 16" fill-rule="evenodd" clip-rule="evenodd" stroke-linejoin="round" stroke-miterlimit="2" id="icon-comment" xmlns="http://www.w3.org/2000/svg"><path d="M8.96 12L12 15v-3a3 3 0 003-3V6.002a3 3 0 00-3-3H4a3 3 0 00-3 3V9a3 3 0 003 3h4.96z"/></symbol><symbol viewBox="0 0 16 16" id="icon-compare" xmlns="http://www.w3.org/2000/svg"><rect transform="rotate(45 8.828 3.828)" x="7.828" y=".828" width="2" height="6" rx="1"/><rect transform="rotate(45 8.828 6.657)" x="5.828" y="5.657" width="6" height="2" rx="1"/><rect transform="rotate(-135 6.828 12.657)" x="5.828" y="9.657" width="2" height="6" rx="1"/><rect transform="rotate(-135 6.828 9.828)" x="3.828" y="8.828" width="6" height="2" rx="1"/><path d="M8 4h8v2H8zm-8 6h8v2H0z"/></symbol><symbol viewBox="0 0 16 16" fill-rule="evenodd" clip-rule="evenodd" stroke-linejoin="round" stroke-miterlimit="2" id="icon-cookie" xmlns="http://www.w3.org/2000/svg"><path d="M0 0h16v16.001H0z" fill="none"/><path d="M14.913 6.892A7.004 7.004 0 018 15.001 7.003 7.003 0 011.002 8a7.004 7.004 0 016.332-6.968 4.03 4.03 0 005.025 3.255 4.042 4.042 0 002.555 2.605zM4.751 8a1.25 1.25 0 10-.001 2.5A1.25 1.25 0 004.751 8zM6 4a1 1 0 100 1.998 1 1 0 00-.001-2zm2 7a1 1 0 100 2 1 1 0 000-2zm2.75-4a1.25 1.25 0 10-.001 2.499 1.25 1.25 0 00.002-2.5z"/></symbol><symbol viewBox="0 0 16 16" id="icon-copy" xmlns="http://www.w3.org/2000/svg"><path d="M14 1a1 1 0 011 1v7a1 1 0 01-1 1h-1.5V5.5a2 2 0 00-1.85-1.994L10.5 3.5H6V2a1 1 0 011-1h7z"/><path d="M10 5a1 1 0 011 1v7a1 1 0 01-1 1H3a1 1 0 01-1-1V6a1 1 0 011-1h7zM6.5 7a.5.5 0 00-.492.41L6 7.5v1.499L4.5 9a.5.5 0 00-.492.41L4 9.5a.5.5 0 00.5.5l1.499-.001L6 11.5a.5.5 0 00.992.09L7 11.5 6.999 10H8.5a.5.5 0 00.492-.41L9 9.5a.5.5 0 00-.5-.5H7V7.5a.5.5 0 00-.5-.5z"/></symbol><symbol viewBox="0 0 16 16" id="icon-cross" xmlns="http://www.w3.org/2000/svg"><path d="M5.172 3.05L8 5.88l2.828-2.829a1 1 0 011.415 0l.707.707a1 1 0 010 1.414L10.12 8l2.829 2.828a1 1 0 010 1.415l-.707.707a1 1 0 01-1.415 0L8 10.12 5.172 12.95a1 1 0 01-1.415 0l-.707-.707a1 1 0 010-1.415L5.88 8 3.05 5.172a1 1 0 010-1.415l.707-.707a1 1 0 011.415 0z"/></symbol><symbol viewBox="0 0 16 16" fill-rule="evenodd" clip-rule="evenodd" stroke-linejoin="round" stroke-miterlimit="2" id="icon-crown" xmlns="http://www.w3.org/2000/svg"><g clip-path="url(#_clip1)" transform="matrix(.18522 0 0 .25394 -21.553 -59.355)"><path d="M186.588 286.905c0-1.09-1.21-1.969-2.7-1.969h-48.385c-1.49 0-2.699.878-2.699 1.97v3.803c0 1.087 1.21 1.97 2.7 1.97h48.384c1.49 0 2.7-.883 2.7-1.97v-3.804zM156.44 247.07c-2.926-.893-4.983-3-4.983-5.454 0-3.26 3.628-5.907 8.098-5.907 4.465 0 8.099 2.647 8.099 5.907 0 2.454-2.063 4.56-4.983 5.454 0 0 4.632 8.117 7.71 13.5.642 1.122 1.954 1.965 3.562 2.284 1.61.319 3.326.083 4.66-.65 4.324-2.363 9.588-5.245 9.588-5.245-1.01-.985-1.603-2.205-1.603-3.529 0-3.26 3.628-5.907 8.098-5.907 4.47 0 8.098 2.647 8.098 5.907 0 3.261-3.628 5.907-8.098 5.907a10.88 10.88 0 01-1.733-.137l-5.49 18.681c-.535 1.816-2.733 3.115-5.28 3.115h-45.26c-2.548 0-4.745-1.3-5.28-3.115l-5.474-18.638a11.1 11.1 0 01-1.463.094c-4.47 0-8.099-2.646-8.099-5.907 0-3.26 3.628-5.907 8.099-5.907 4.47 0 8.098 2.647 8.098 5.907 0 1.367-.637 2.627-1.711 3.631 0 0 5.15 2.816 9.41 5.143 1.333.733 3.05.969 4.659.65 1.609-.319 2.92-1.162 3.563-2.284 3.078-5.383 7.715-13.5 7.715-13.5z"/></g></symbol><symbol viewBox="0 0 16 16" id="icon-delete" xmlns="http://www.w3.org/2000/svg"><path d="M1.5 4V3a1 1 0 011-1h3a2 2 0 012-2h1a2 2 0 012 2h3a1 1 0 011 1v1h-13zm11.785 1l-.719 10.071a1 1 0 01-.997.929H4.431a1 1 0 01-.997-.929L2.714 5h10.57zM7 7H6v6h1V7zm3 0H9v6h1V7z"/></symbol><symbol viewBox="0 0 16 16" id="icon-deploy" xmlns="http://www.w3.org/2000/svg"><path d="M8.279 13.027l.221 1.544-1.414 1.414-1.25-1.872a39.32 39.32 0 002.443-1.086zM1.429 7.5l1.548.222a39.311 39.311 0 00-1.086 2.443L.015 8.915 1.429 7.5zm13.098-6.375c.216.002.337.011.337.011s.009.121.011.337v.18c-.009 1.505-.344 5.927-3.812 8.233-2.288 1.522-4.72 2.563-6.465 3.197l-1.681-1.68C3.55 9.657 4.59 7.226 6.114 4.937c2.306-3.468 6.728-3.803 8.233-3.812h.18zM8.5 5.025A1.75 1.75 0 1010.975 7.5 1.75 1.75 0 008.5 5.025zm-6.378 7.412l1.445 1.444C1.57 15.144.136 15.865.136 15.865s.722-1.432 1.985-3.428z"/></symbol><symbol viewBox="0 0 16 16" id="icon-diagnose" xmlns="http://www.w3.org/2000/svg"><path d="M7.327.516l3.67.983L11 1.5v5c0 2.38-2.738 4.406-4.423 5.172a3 3 0 005.032 1.462A2.487 2.487 0 0111 11.5a2.5 2.5 0 112.5 2.5h-.001a5.001 5.001 0 01-8.946-2.27C2.884 11.012 0 8.942 0 6.5L-.001 3H0V1.5h.003l3.67-.984.518 1.932L2.5 2.9 2.5 6l.011.176C2.714 7.751 5.555 9 5.5 9c-.055 0 2.786-1.249 2.989-2.824L8.5 6V2.9l-1.69-.452.517-1.932z"/></symbol><symbol viewBox="0 0 16 16" id="icon-direction" xmlns="http://www.w3.org/2000/svg"><path d="M8.65 1.558l4.298 3.683a1 1 0 01.108 1.41 1 1 0 01-.76.349H3.704a1 1 0 01-1-1 1 1 0 01.35-.76l4.296-3.682a1 1 0 011.302 0zm-.488.88a.25.25 0 00-.324 0L3.961 5.736A.15.15 0 004.058 6h7.884a.15.15 0 00.097-.264zm-.813 12.004L3.052 10.76a1 1 0 01-.108-1.41A1 1 0 013.704 9h8.593a1 1 0 011 1 1 1 0 01-.35.76l-4.296 3.682a1 1 0 01-1.302 0z"/></symbol><symbol viewBox="0 0 16 16" id="icon-dot" xmlns="http://www.w3.org/2000/svg"><circle cx="8" cy="8" r="5"/></symbol><symbol viewBox="0 0 16 16" id="icon-dot_outline" xmlns="http://www.w3.org/2000/svg"><path d="M8 3a5 5 0 110 10A5 5 0 018 3zm0 1a4 4 0 100 8 4 4 0 000-8z"/></symbol><symbol viewBox="0 0 16 16" id="icon-download" xmlns="http://www.w3.org/2000/svg"><path d="M6.674 11.745c.732.733 1.92.733 2.652 0L11.07 10H14a1 1 0 011 1v2a1 1 0 01-1 1H2a1 1 0 01-1-1v-2a1 1 0 011-1h2.929z"/><path d="M9 1a1 1 0 011 1v3.999L11.242 6a1 1 0 011 1 1 1 0 01-.293.707L8.707 10.95a1 1 0 01-1.414 0L5.879 9.536 4.05 7.707a1 1 0 010-1.414A1 1 0 014.757 6L6 5.999 6 2a1 1 0 011-1h2z"/></symbol><symbol viewBox="0 0 16 16" fill-rule="evenodd" clip-rule="evenodd" stroke-linejoin="round" stroke-miterlimit="2" id="icon-expand" xmlns="http://www.w3.org/2000/svg"><g transform="matrix(.18522 0 0 .25394 -21.553 -59.355)"><path d="M116.362 233.74h86.382v63.008h-86.382z" fill="none"/><clipPath id="bga"><path d="M116.362 233.74h86.382v63.008h-86.382z"/></clipPath><g clip-path="url(#bga)"><path d="M171.074 251.806c2.07 1.535 5.464 1.56 7.572.05 2.104-1.508 2.134-3.986.065-5.521l-15.407-11.43c-2.07-1.536-5.463-1.554-7.567-.047-2.108 1.51-2.138 3.982-.069 5.518l15.406 11.43z"/><path d="M140.496 251.393c2.089 1.55 5.51 1.57 7.633.05l15.208-10.896c2.127-1.524 2.157-4.018.069-5.567l-.07-.051c-2.088-1.55-5.509-1.571-7.636-.047l-15.207 10.895c-2.123 1.521-2.154 4.016-.065 5.565l.068.051z"/><path d="M165.14 237.18v19.69h-10.8v-19.69zm-17.091 41.438c-2.07-1.535-5.464-1.56-7.572-.05-2.104 1.508-2.134 3.986-.065 5.521l15.407 11.43c2.07 1.536 5.463 1.554 7.567.047 2.108-1.51 2.138-3.982.069-5.518l-15.406-11.43z"/><path d="M178.627 279.03c-2.089-1.549-5.51-1.57-7.633-.049l-15.208 10.896c-2.127 1.524-2.157 4.018-.069 5.567l.07.051c2.088 1.55 5.509 1.571 7.636.047l15.207-10.895c2.123-1.521 2.154-4.016.065-5.565l-.068-.051z"/><path d="M153.985 293.243v-19.69h10.8v19.69z"/><ellipse cx="405.734" cy="5.445" rx="1.306" ry=".915" transform="matrix(4.13424 0 0 4.30482 -1550.24 241.803)"/><ellipse cx="405.734" cy="5.445" rx="1.306" ry=".915" transform="matrix(4.13424 0 0 4.30482 -1534.05 241.803)"/><ellipse cx="405.734" cy="5.445" rx="1.306" ry=".915" transform="matrix(4.13424 0 0 4.30482 -1517.85 241.803)"/><ellipse cx="405.734" cy="5.445" rx="1.306" ry=".915" transform="matrix(4.13424 0 0 4.30482 -1501.65 241.803)"/><ellipse cx="405.734" cy="5.445" rx="1.306" ry=".915" transform="matrix(4.13424 0 0 4.30482 -1485.46 241.803)"/></g></g></symbol><symbol viewBox="0 0 16 16" fill-rule="evenodd" clip-rule="evenodd" stroke-linejoin="round" stroke-miterlimit="2" id="icon-facebook" xmlns="http://www.w3.org/2000/svg"><path d="M0 .002h16v16H0z" fill="none"/><path d="M15.515 8.014c0-4.158-3.358-7.528-7.5-7.528s-7.5 3.37-7.5 7.528a7.525 7.525 0 005.688 7.305v-5.005H4.657v-2.3h1.546v-.992c0-2.562 1.156-3.75 3.662-3.75.475 0 1.295.094 1.63.188v2.085a9.605 9.605 0 00-.866-.028c-1.23 0-1.705.467-1.705 1.683v.814h2.45l-.421 2.3H8.924v5.172c3.713-.45 6.591-3.624 6.591-7.472z" fill-rule="nonzero"/></symbol><symbol viewBox="0 0 16 16" fill-rule="evenodd" clip-rule="evenodd" stroke-linejoin="round" stroke-miterlimit="2" id="icon-filter" xmlns="http://www.w3.org/2000/svg"><g transform="matrix(.18522 0 0 .25394 -21.553 -59.354)"><path d="M116.362 233.74h86.382v63.008h-86.382z" fill="none"/><clipPath id="bia"><path d="M116.362 233.74h86.382v63.008h-86.382z"/></clipPath><g clip-path="url(#bia)"><path d="M189.24 265.243c0-2.175-2.416-3.936-5.397-3.939h-48.59c-2.98.003-5.4 1.764-5.4 3.94 0 2.175 2.42 3.938 5.4 3.938h48.59c2.981 0 5.397-1.763 5.397-3.939zm-13.492 15.752c0-1.042-.569-2.045-1.581-2.783-1.013-.74-2.385-1.156-3.817-1.156h-21.596c-1.431 0-2.804.416-3.818 1.156-1.012.738-1.581 1.74-1.581 2.783 0 1.046.569 2.046 1.58 2.786 1.015.738 2.388 1.153 3.82 1.153h21.595c1.432 0 2.804-.415 3.817-1.153 1.012-.74 1.581-1.74 1.581-2.786zm26.99-31.504c0-2.175-2.413-3.936-5.398-3.939h-75.585c-2.98.003-5.399 1.764-5.399 3.94 0 2.175 2.42 3.938 5.4 3.938h75.584c2.985 0 5.399-1.763 5.399-3.939z"/></g></g></symbol><symbol viewBox="0 0 16 16" fill-rule="evenodd" clip-rule="evenodd" stroke-linejoin="round" stroke-miterlimit="2" id="icon-fullscreen" xmlns="http://www.w3.org/2000/svg"><path d="M0 0h16v16.001H0z" fill="none"/><path d="M1 6V1h5v2H3v3H1zm12-3h-3V1h5v5h-2V3zM1 15v-5h2v3h3v2H1zm14 0h-5v-2h3v-3h2v5z"/></symbol><symbol viewBox="0 0 16 16" fill-rule="evenodd" clip-rule="evenodd" stroke-linejoin="round" stroke-miterlimit="2" id="icon-fullscreen-exit" xmlns="http://www.w3.org/2000/svg"><path d="M0 0h16v16.001H0z" fill="none"/><path d="M10 15v-5h5v2h-3v3h-2zm-6-3H1v-2h5v5H4v-3zm6-6V1h2v3h3v2h-5zM6 6H1V4h3V1h2v5z"/></symbol><symbol viewBox="0 0 16 16" fill-rule="evenodd" clip-rule="evenodd" stroke-linejoin="round" stroke-miterlimit="2" id="icon-github" xmlns="http://www.w3.org/2000/svg"><path d="M0 0h16v16.001H0z" fill="none"/><path d="M8.006.5C3.856.5.5 3.88.5 8.062a7.556 7.556 0 005.133 7.173c.372.076.509-.162.509-.362 0-.176-.012-.777-.012-1.403-2.088.451-2.523-.901-2.523-.901-.336-.877-.833-1.102-.833-1.102-.683-.463.05-.463.05-.463.758.05 1.156.776 1.156.776.67 1.152 1.752.826 2.187.626.062-.488.26-.826.472-1.014-1.665-.175-3.417-.826-3.417-3.731 0-.826.298-1.502.77-2.028-.074-.188-.336-.964.075-2.003 0 0 .633-.2 2.063.776a7.222 7.222 0 011.876-.25c.634 0 1.28.087 1.877.25 1.429-.977 2.063-.776 2.063-.776.41 1.039.149 1.815.074 2.003.485.526.77 1.202.77 2.028 0 2.905-1.751 3.543-3.43 3.731.274.238.51.688.51 1.402 0 1.014-.012 1.828-.012 2.078 0 .2.137.439.51.364A7.556 7.556 0 0015.5 8.062C15.512 3.88 12.144.5 8.006.5z"/></symbol><symbol viewBox="0 0 16 16" id="icon-global" xmlns="http://www.w3.org/2000/svg"><path d="M14.062 11.5a7.027 7.027 0 01-3.828 3.135c.581-.784 1.054-1.866 1.363-3.135h2.465zm-2.261-1C11.93 9.713 12 8.873 12 8c0-.874-.07-1.715-.2-2.503h2.739A6.976 6.976 0 0115 8c0 .88-.163 1.724-.46 2.5H11.8zm2.26-6.003h-2.464c-.31-1.268-.782-2.349-1.363-3.132a7.028 7.028 0 013.827 3.132zM4.403 11.5c.31 1.27.782 2.35 1.363 3.135A7.027 7.027 0 011.938 11.5h2.465zM4.2 5.497C4.07 6.285 4 7.126 4 8c0 .873.07 1.713.2 2.5H1.46A6.978 6.978 0 011 8c0-.882.163-1.726.462-2.503H4.2zm-2.26-1a7.027 7.027 0 013.826-3.132c-.58.784-1.053 1.864-1.363 3.132H1.94zm8.658 7.003C10.08 13.592 9.11 15 8 15c-1.11 0-2.08-1.408-2.598-3.5h5.196zm-5.4-1A15.508 15.508 0 015 8c0-.882.07-1.726.198-2.503h5.604C10.93 6.274 11 7.118 11 8c0 .88-.07 1.724-.197 2.5H5.197zm5.4-6.003H5.402C5.922 2.407 6.89 1 8 1s2.078 1.407 2.597 3.497z"/></symbol><symbol viewBox="0 0 16 16" id="icon-help" xmlns="http://www.w3.org/2000/svg"><path d="M8.96 10.34V8.9a4.791 4.791 0 001.34-.44 3.866 3.866 0 001.88-2.02c.187-.453.28-.96.28-1.52 0-.613-.11-1.173-.33-1.68a3.607 3.607 0 00-.95-1.3A4.463 4.463 0 009.7 1.1C9.127.9 8.493.8 7.8.8c-.68 0-1.277.093-1.79.28-.513.187-.953.43-1.32.73s-.663.64-.89 1.02-.4.77-.52 1.17l2.44 1.02c.12-.493.35-.9.69-1.22.34-.32.77-.48 1.29-.48.48 0 .87.133 1.17.4.3.267.45.653.45 1.16v.28c0 .747-.263 1.277-.79 1.59-.527.313-1.317.49-2.37.53v3.06h2.8zm-1.36 4.9c.64 0 1.097-.147 1.37-.44.273-.293.41-.653.41-1.08v-.48c0-.427-.137-.787-.41-1.08-.273-.293-.73-.44-1.37-.44-.64 0-1.097.147-1.37.44-.273.293-.41.653-.41 1.08v.48c0 .427.137.787.41 1.08.273.293.73.44 1.37.44z"/></symbol><symbol viewBox="0 0 16 16" fill-rule="evenodd" clip-rule="evenodd" stroke-linejoin="round" stroke-miterlimit="2" id="icon-help-alt" xmlns="http://www.w3.org/2000/svg"><path d="M0 0h16v16.001H0z" fill="none"/><path d="M15 2.5A1.5 1.5 0 0013.5 1h-11A1.5 1.5 0 001 2.5v11A1.5 1.5 0 002.5 15h11a1.5 1.5 0 001.5-1.5v-11zM7.827 12.672c.414 0 .71-.095.887-.285a.987.987 0 00.265-.7v-.31a.987.987 0 00-.265-.698c-.177-.19-.473-.285-.887-.285-.414 0-.71.095-.886.285a.987.987 0 00-.265.699v.31c0 .276.088.509.265.699.177.19.472.285.886.285zm.88-3.171v-.932c.302-.051.59-.146.867-.284a2.51 2.51 0 001.217-1.307 2.56 2.56 0 00.18-.984 2.69 2.69 0 00-.213-1.087 2.332 2.332 0 00-.614-.841 2.886 2.886 0 00-.958-.543 3.697 3.697 0 00-1.23-.195c-.44 0-.825.06-1.157.182a2.89 2.89 0 00-.855.472 2.504 2.504 0 00-.575.66 3.362 3.362 0 00-.337.757l1.579.66c.078-.32.226-.582.446-.79.22-.206.499-.31.835-.31.31 0 .563.086.757.259.194.172.29.423.29.75v.182c0 .483-.17.826-.51 1.028-.341.203-.852.317-1.533.343V9.5h1.81z"/></symbol><symbol viewBox="0 0 16 16" fill-rule="evenodd" clip-rule="evenodd" stroke-linejoin="round" stroke-miterlimit="2" id="icon-info" xmlns="http://www.w3.org/2000/svg"><path d="M0 .001h16v16H0z" fill="none"/><path d="M8 1c3.863 0 7 3.137 7 7 0 3.864-3.137 7-7 7s-7-3.136-7-7c0-3.863 3.137-7 7-7zm0 11.25a1.25 1.25 0 001.244-1.122L9.25 11V8.5a1.25 1.25 0 00-2.494-.128L6.75 8.5V11c0 .69.56 1.25 1.25 1.25zm0-6a1.25 1.25 0 100-2.501 1.25 1.25 0 000 2.5z"/></symbol><symbol viewBox="0 0 16 16" fill-rule="evenodd" clip-rule="evenodd" stroke-linejoin="round" stroke-miterlimit="2" id="icon-instagram" xmlns="http://www.w3.org/2000/svg"><path d="M0 .002h16v16H0z" fill="none"/><path d="M5.113 1.065c-.745.035-1.254.154-1.698.329-.46.18-.85.42-1.238.81-.389.389-.628.779-.806 1.24-.172.446-.289.955-.322 1.7-.033.745-.04.985-.036 2.885.003 1.901.012 2.14.048 2.886.036.745.154 1.254.329 1.698.18.46.42.85.81 1.239.389.388.779.626 1.241.805.445.172.954.289 1.7.322.745.032.984.04 2.885.036 1.9-.003 2.14-.012 2.886-.047.747-.036 1.252-.155 1.697-.329.46-.18.85-.42 1.239-.81.388-.39.626-.78.804-1.241.173-.445.29-.955.322-1.7.033-.746.04-.985.037-2.885-.004-1.901-.012-2.14-.048-2.886-.035-.746-.154-1.253-.328-1.698-.18-.46-.42-.85-.81-1.239s-.78-.627-1.241-.804c-.445-.173-.954-.29-1.7-.322C10.14 1.02 9.9 1.014 8 1.017c-1.901.003-2.14.012-2.886.048m.082 12.654c-.683-.03-1.053-.143-1.3-.238-.327-.126-.56-.278-.807-.522s-.397-.477-.525-.804c-.095-.247-.21-.617-.243-1.3-.035-.737-.042-.958-.046-2.827-.004-1.87.003-2.09.036-2.828.029-.682.143-1.053.238-1.3.126-.327.277-.56.522-.806s.477-.397.804-.525c.246-.096.616-.211 1.299-.243.738-.035.96-.042 2.828-.046 1.868-.005 2.09.002 2.829.035.681.03 1.053.143 1.3.238.326.126.56.277.805.522s.398.477.525.804c.097.246.211.616.244 1.299.035.738.043.96.046 2.828.003 1.868-.003 2.09-.036 2.828-.03.682-.142 1.053-.238 1.3a2.17 2.17 0 01-.522.806 2.162 2.162 0 01-.804.525c-.246.096-.617.211-1.299.244-.738.034-.959.042-2.828.046-1.87.004-2.09-.004-2.828-.036M10.9 4.275c.001.46.38.838.84.838.461 0 .84-.379.84-.84s-.379-.84-.84-.84h-.001c-.461.001-.84.381-.839.842M4.418 8.023a3.594 3.594 0 107.188-.014 3.594 3.594 0 00-7.188.014m1.26-.003v-.004a2.345 2.345 0 012.334-2.334 2.345 2.345 0 012.333 2.334c0 1.278-1.05 2.33-2.328 2.333h-.005A2.344 2.344 0 015.679 8.02" fill-rule="nonzero"/></symbol><symbol viewBox="0 0 16 16" fill-rule="evenodd" clip-rule="evenodd" stroke-linejoin="round" stroke-miterlimit="2" id="icon-linkedin" xmlns="http://www.w3.org/2000/svg"><path d="M0 .002h16v16H0z" fill="none"/><path d="M12.914 12.92H10.84V9.67c0-.774-.014-1.772-1.079-1.772-1.08 0-1.245.844-1.245 1.715v3.306H6.442v-6.68h1.99v.914h.028a2.185 2.185 0 011.964-1.08c2.102 0 2.49 1.384 2.49 3.182v3.664zM4.102 5.326c-.661 0-1.204-.544-1.204-1.204S3.44 2.919 4.1 2.919s1.204.544 1.204 1.204a1.21 1.21 0 01-1.203 1.204m1.036 7.592H3.062v-6.68H5.14v6.68zM13.947.994H2.02a.955.955 0 00-.012 0c-.556 0-1.015.454-1.02 1.01v11.975c.006.56.472 1.016 1.032 1.01h11.927a1.03 1.03 0 001.038-1.01V2.002a1.028 1.028 0 00-1.038-1.01" fill-rule="nonzero"/></symbol><symbol viewBox="0 0 16 16" fill-rule="evenodd" clip-rule="evenodd" stroke-linejoin="round" stroke-miterlimit="2" id="icon-lock" xmlns="http://www.w3.org/2000/svg"><g clip-path="url(#_clip1)" transform="matrix(.18522 0 0 .25394 -21.553 -59.355)"><path d="M135.26 251.46v-.079c0-9.735 10.836-17.642 24.187-17.642 13.346 0 24.187 7.907 24.187 17.642l-.005.079h.221v13.783c2.98 0 5.399 1.764 5.399 3.938v23.628c0 2.178-2.419 3.938-5.399 3.938h-48.59c-2.985 0-5.399-1.76-5.399-3.938v-23.628c0-2.174 2.414-3.938 5.4-3.938V251.46zm20.246 30.713c-2.424-1.02-4.05-2.93-4.05-5.116 0-3.26 3.629-5.907 8.1-5.907 4.464 0 8.097 2.646 8.097 5.907 0 2.186-1.63 4.096-4.049 5.116v6.698c0 1.087-1.21 1.97-2.7 1.97h-2.699c-1.495 0-2.7-.883-2.7-1.97v-6.698zm-12.148-29.343a8.239 8.239 0 01-.108-1.37c0-6.521 7.257-11.814 16.197-11.814 8.935 0 16.197 5.293 16.197 11.814h.108v13.783h-32.394V252.83z"/></g></symbol><symbol viewBox="0 0 16 16" fill-rule="evenodd" clip-rule="evenodd" stroke-linejoin="round" stroke-miterlimit="2" id="icon-magnet" xmlns="http://www.w3.org/2000/svg"><path d="M10.137 3.776a1 1 0 000-1.415L8.37.594a1 1 0 00-1.415 0L5.548 2 8.73 5.182l1.407-1.407zm5.305 5.302a1 1 0 000-1.415l-1.768-1.767a1 1 0 00-1.414 0l-1.407 1.406 3.182 3.182 1.407-1.406zm-10.96-6.01L7.662 6.25 5.188 8.724a1.501 1.501 0 002.121 2.122l2.475-2.475 3.182 3.182-2.475 2.475a6.004 6.004 0 01-8.485 0 6.003 6.003 0 010-8.486l2.475-2.474z"/></symbol><symbol viewBox="0 0 16 16" fill-rule="evenodd" clip-rule="evenodd" stroke-linejoin="round" stroke-miterlimit="2" id="icon-meetup" xmlns="http://www.w3.org/2000/svg"><path d="M0 0h16v16.001H0z" fill="none"/><path d="M3.492 3.752a.506.506 0 10-.575-.832.506.506 0 00.575.832zm12.49 2.96a.311.311 0 10-.609.13.311.311 0 00.609-.13zM2.644 12.47a.31.31 0 10.13.605.31.31 0 00-.13-.605zm2.084-11.4A.354.354 0 104.58.379a.354.354 0 00.15.693zm2.627 13.768a.43.43 0 10.489.708.43.43 0 00-.49-.708zM9.288 2.024a.66.66 0 10-.68-1.133.66.66 0 00.68 1.133zM1.042 7.121a.666.666 0 10-.754 1.1.666.666 0 00.754-1.1zm12.5-2.61a.563.563 0 10.639.926.563.563 0 00-.64-.926zm1.232 3.898a.419.419 0 10.176.818.419.419 0 00-.176-.818zm-3.346 5.21a.697.697 0 10.792 1.148.697.697 0 00-.792-1.147zm2.207-7.155a1.632 1.632 0 00-.877-.623 2.956 2.956 0 00-.517-1.914 2.975 2.975 0 00-3.46-1.103 3.359 3.359 0 00-3.727.055A3.35 3.35 0 003.822 4.45c-.339.046-.673.16-.974.367a2.248 2.248 0 00-.625 3.04 2.42 2.42 0 00-.403 3.097c.386.597.991.957 1.642 1.064.012.488.159.978.457 1.41a2.598 2.598 0 003.613.66c.045-.032.08-.071.123-.105a1.943 1.943 0 002.402.16 1.94 1.94 0 00.776-1.126 2.82 2.82 0 001.72-.492 2.847 2.847 0 00.793-3.857c.647-.545.786-1.5.29-2.204zm-4.163 4.732c-.554-.271-.89-.892-.746-1.505.107-.458 1.132-2.33 1.17-2.618.04-.294-.118-.319-.215-.324-.127-.006-.226.055-.35.242-.113.17-1.388 2.722-1.498 2.93-.198.373-.447.463-.697.45-.364-.02-.531-.215-.478-.566.03-.207.839-2.032.88-2.317.026-.176-.009-.363-.183-.452-.175-.09-.381.048-.443.152-.085.143-1.231 3.135-1.353 3.357-.211.384-.433.506-.768.521-.79.038-1.376-.612-1.117-1.409.115-.355.876-3.046 1.262-3.73.259-.461.978-.811 1.477-.595.259.112.617.29.722.337.244.108.506-.185.609-.274.103-.09.201-.184.327-.238.126-.054.323-.076.475-.054a.6.6 0 01.3.126c.113.09.183.16.289.26.16.152.274.06.354.014.139-.08.247-.146.657-.138.422.007.906.158 1.007.877.112.8-1.308 2.858-1.209 3.813.07.673 1.208.199 1.304.813.125.798-1.422.501-1.776.328z" fill-rule="nonzero"/></symbol><symbol viewBox="0 0 16 16" id="icon-menu-arrow" xmlns="http://www.w3.org/2000/svg"><path d="M11.743 7.207a1 1 0 010 1.414l-4.95 4.95a1 1 0 01-1.414 0l-.707-.707a1 1 0 010-1.414l3.535-3.536L4.672 4.38a1 1 0 010-1.414l.707-.708a1 1 0 011.414 0L11.035 6.5l.708.708z"/></symbol><symbol viewBox="0 0 16 16" id="icon-menu-toggle" xmlns="http://www.w3.org/2000/svg"><circle cx="8" cy="8" r="2"/><circle cx="14" cy="8" r="2"/><circle cx="2" cy="8" r="2"/></symbol><symbol viewBox="0 0 16 16" fill-rule="evenodd" clip-rule="evenodd" stroke-linejoin="round" stroke-miterlimit="2" id="icon-molecube" xmlns="http://www.w3.org/2000/svg"><g transform="matrix(.18522 0 0 .25394 -21.553 -59.354)"><path d="M116.362 233.74h86.382v63.008h-86.382z" fill="none"/><clipPath id="bxa"><path d="M116.362 233.74h86.382v63.008h-86.382z"/></clipPath><g clip-path="url(#bxa)"><path d="M159.894 255.397c1.198-3.394 5.431-5.907 10.457-5.907 5.96 0 10.798 3.533 10.798 7.876 0 3.67-3.444 6.754-8.098 7.628v16.252c4.654.875 8.098 3.958 8.098 7.624 0 4.348-4.837 7.876-10.798 7.876-5.026 0-9.259-2.508-10.457-5.907h-22.276c-1.204 3.399-5.431 5.907-10.458 5.907-5.96 0-10.797-3.528-10.797-7.876 0-3.666 3.439-6.75 8.098-7.624v-16.252c-4.66-.874-8.098-3.957-8.098-7.628 0-4.343 4.837-7.876 10.797-7.876 5.027 0 9.254 2.513 10.458 5.907h22.276zm0 3.938c.977 2.769 3.962 4.947 7.758 5.66v16.251c-3.796.713-6.781 2.891-7.758 5.655h-22.276c-.983-2.764-3.968-4.942-7.758-5.655v-16.252c3.79-.712 6.78-2.89 7.758-5.659h22.276z"/><path d="M181.49 239.645c1.198-3.394 5.43-5.907 10.457-5.907 5.96 0 10.798 3.533 10.798 7.876 0 3.67-3.445 6.754-8.099 7.628v16.252c4.654.875 8.099 3.958 8.099 7.624 0 4.348-4.838 7.876-10.798 7.876s-10.798-3.528-10.798-7.876c0-3.666 3.44-6.75 8.098-7.624v-16.252c-3.795-.713-6.78-2.89-7.758-5.659h-22.276c-1.204 3.399-5.43 5.907-10.457 5.907-5.96 0-10.798-3.528-10.798-7.876 0-4.343 4.837-7.876 10.798-7.876 5.026 0 9.253 2.513 10.457 5.907h22.276z"/></g></g></symbol><symbol viewBox="0 0 16 16" id="icon-molecule" xmlns="http://www.w3.org/2000/svg"><circle cx="12.5" cy="13.5" r="2.5"/><circle cx="13" cy="2" r="2"/><circle cx="2" cy="13" r="2"/><circle cx="5" cy="6" r="4"/><path d="M5.53 5.47l7.779 7.778-1.061 1.06L4.47 6.53z"/><path d="M4.66 5.332l8.018-4.086.681 1.336-8.018 4.086z"/><path d="M6.081 5.372l-3.126 7.364-1.38-.586L4.7 4.786z"/></symbol><symbol viewBox="0 0 16 16" fill-rule="evenodd" clip-rule="evenodd" stroke-linejoin="round" stroke-miterlimit="2" id="icon-official" xmlns="http://www.w3.org/2000/svg"><path d="M0 .002h16v16H0z" fill="none"/><path d="M10.742 2.75a.5.5 0 00.433.25H12.5a.5.5 0 01.5.5v1.325c0 .18.095.344.25.433l1.147.662a.5.5 0 01.183.683l-.662 1.147a.501.501 0 000 .5l.662 1.148a.5.5 0 01-.183.683l-1.147.662a.498.498 0 00-.25.433V12.5a.5.5 0 01-.5.5h-1.325a.503.503 0 00-.433.25l-.662 1.148a.5.5 0 01-.683.183l-1.147-.663a.501.501 0 00-.5 0l-1.147.663a.5.5 0 01-.683-.183l-.662-1.148a.503.503 0 00-.433-.25H3.5a.5.5 0 01-.5-.5v-1.324a.499.499 0 00-.25-.433l-1.147-.662a.5.5 0 01-.183-.683l.662-1.148a.497.497 0 000-.5L1.42 6.603a.5.5 0 01.183-.683l1.147-.662A.499.499 0 003 4.825V3.5a.5.5 0 01.5-.5h1.325a.501.501 0 00.433-.25l.662-1.147a.5.5 0 01.683-.183l1.147.663a.502.502 0 00.5 0l1.147-.663a.5.5 0 01.683.183l.662 1.147zM7.434 8.702a.249.249 0 01-.353 0l-.884-.884a.504.504 0 00-.354-.146.501.501 0 00-.353.146l-.354.354a.5.5 0 00-.146.354c0 .132.052.26.146.353l1.768 1.768a.5.5 0 00.707 0l3.535-3.536a.498.498 0 000-.707l-.353-.353a.498.498 0 00-.707 0L7.434 8.702z"/></symbol><symbol viewBox="0 0 16 16" id="icon-page" xmlns="http://www.w3.org/2000/svg"><path d="M8 0v5a1 1 0 00.883.993L9 6h5v9a1 1 0 01-1 1H3a1 1 0 01-1-1V1a1 1 0 011-1h5zm4 12H4v1h8v-1zm0-2H4v1h8v-1zm0-2H4v1h8V8z"/><path d="M9 0l5 5H9.5a.5.5 0 01-.5-.5V0z"/></symbol><symbol viewBox="0 0 16 16" id="icon-page-rotation" xmlns="http://www.w3.org/2000/svg"><path d="M12.76 7a.5.5 0 01-.467-.349h.001a4.502 4.502 0 00-7.49-1.82L4.648 5 6.5 5a1 1 0 110 2h-4a1 1 0 01-1-1V2a1 1 0 112 0v1.31A6.503 6.503 0 0114.302 6.4a.656.656 0 01.008.1.5.5 0 01-.5.5h-1.05zM3.24 9a.5.5 0 01.467.349h-.001a4.502 4.502 0 007.49 1.82l.157-.168L9.5 11a1 1 0 110-2h4a1 1 0 011 1v4a1 1 0 11-2 0v-1.31A6.503 6.503 0 011.698 9.6a.656.656 0 01-.008-.1.5.5 0 01.5-.5h1.05z"/></symbol><symbol viewBox="0 0 16 16" id="icon-page-rotation-paused" xmlns="http://www.w3.org/2000/svg"><path d="M2.5 1a1 1 0 011 1v1.31A6.478 6.478 0 018 1.5c.682 0 1.34.105 1.958.3L8.25 3.507A4.572 4.572 0 008 3.5c-1.25 0-2.38.51-3.195 1.331L4.647 5 6.5 5c.08 0 .157.01.231.027L4.757 7H2.5a1 1 0 01-1-1V2a1 1 0 011-1zm11 8a1 1 0 011 1v4a1 1 0 11-2 0v-1.31A6.478 6.478 0 018 14.5a6.497 6.497 0 01-1.957-.3l1.708-1.707a4.486 4.486 0 003.444-1.324l.158-.168L9.5 11a1.003 1.003 0 01-.23-.026L11.243 9H13.5z"/><rect transform="rotate(45 8 8)" x="6.75" y="-2" width="2.5" height="20" rx="1"/></symbol><symbol viewBox="0 0 16 16" id="icon-pause" xmlns="http://www.w3.org/2000/svg"><rect x="3" y="1" width="4" height="14" rx="1"/><rect x="9" y="1" width="4" height="14" rx="1"/></symbol><symbol viewBox="0 0 16 16" id="icon-pencil" xmlns="http://www.w3.org/2000/svg"><path d="M3.414 6.95L6.95 3.414l8.07 8.071L15 15l-3.515.02-8.07-8.07zM.586 2.707L2.707.586a1 1 0 011.414 0L5.535 2 2 5.535.586 4.122a1 1 0 010-1.414z"/></symbol><symbol viewBox="0 0 16 16" fill-rule="evenodd" clip-rule="evenodd" stroke-linejoin="round" stroke-miterlimit="2" id="icon-pin" xmlns="http://www.w3.org/2000/svg"><path d="M0 0h16v16H0z" fill="none"/><path d="M11.313.443l4.243 4.243a1 1 0 01.294.706 1 1 0 01-.294.708 1 1 0 01-.707.293 1.002 1.002 0 01-.707-.293l-.354-.353-3.301 3.301a5 5 0 01-1.295 4.83l-7.071-7.07a5 5 0 014.83-1.295l3.302-3.302-.354-.353a1.002 1.002 0 01-.292-.708.999.999 0 01.292-.707 1 1 0 01.708-.293 1 1 0 01.706.293zM0 16l6.01-3.889-2.12-2.121L0 15.999z"/></symbol><symbol viewBox="0 0 16 16" id="icon-play" xmlns="http://www.w3.org/2000/svg"><path d="M12.024 8.78l-7.4 5.92A1 1 0 013 13.92V2.08a1 1 0 011-1 1 1 0 01.625.22l7.399 5.92a1 1 0 01.156 1.405 1 1 0 01-.156.156z"/></symbol><symbol viewBox="0 0 16 16" id="icon-plus" xmlns="http://www.w3.org/2000/svg"><path d="M8.5 1.5a1 1 0 011 1v4h4a1 1 0 011 1v1a1 1 0 01-1 1h-4v4a1 1 0 01-1 1h-1a1 1 0 01-1-1v-4h-4a1 1 0 01-1-1v-1a1 1 0 011-1h4v-4a1 1 0 011-1h1z"/></symbol><symbol viewBox="0 0 16 16" id="icon-reset" xmlns="http://www.w3.org/2000/svg"><path d="M2.5 1a1 1 0 011 1v1.31a6.5 6.5 0 11-1.923 5.691h2.035A4.502 4.502 0 0012.5 8a4.5 4.5 0 00-7.854-3L3.5 4.999V5h3a1 1 0 110 2h-4a1 1 0 01-1-1V2a1 1 0 011-1z"/></symbol><symbol viewBox="0 0 16 16" fill-rule="evenodd" clip-rule="evenodd" stroke-linejoin="round" stroke-miterlimit="2" id="icon-restricted" xmlns="http://www.w3.org/2000/svg"><path d="M0 0h16v16.001H0z" fill="none"/><path d="M8 1c3.863 0 7 3.137 7 7 0 3.864-3.137 7-7 7s-7-3.136-7-7c0-3.863 3.137-7 7-7zM3.829 5.243a5.002 5.002 0 006.928 6.928L3.829 5.243zm8.342 5.514a5.002 5.002 0 00-6.928-6.928l6.928 6.928z"/></symbol><symbol viewBox="0 0 16 16" id="icon-search" xmlns="http://www.w3.org/2000/svg"><path d="M7 1a6 6 0 015.415 8.587l2.777 2.777a1 1 0 010 1.414l-1.414 1.414a1 1 0 01-1.414 0l-2.777-2.777A6 6 0 117 1zm0 2.5a3.5 3.5 0 100 7 3.5 3.5 0 000-7z"/></symbol><symbol viewBox="0 0 16 16" fill-rule="evenodd" clip-rule="evenodd" stroke-linejoin="round" stroke-miterlimit="2" id="icon-settings" xmlns="http://www.w3.org/2000/svg"><path d="M0 0h16v16.001H0z" fill="none"/><path d="M9.5 2.016c0 .396.237.752.602.904l.001-.002a.979.979 0 001.065-.212c.005-.002.01-.006.013-.01a.997.997 0 01.707-.292 1 1 0 01.707.293l.707.707a.997.997 0 010 1.414l-.01.01a.98.98 0 00-.213 1.069l.003-.001a.975.975 0 00.901.6c.005.004.011.004.016.004a1 1 0 011 1v1a1 1 0 01-1 1h-.016a.98.98 0 00-.904.604h.002a.978.978 0 00.212 1.065c.002.006.005.009.01.013a.999.999 0 01.292.707c0 .265-.105.52-.293.707l-.707.707a.999.999 0 01-.707.293.997.997 0 01-.707-.293.057.057 0 01-.01-.011.98.98 0 00-1.069-.212v.003a.977.977 0 00-.6.9c-.003.007-.003.012-.003.017a1 1 0 01-1 1h-1a1 1 0 01-1-1v-.016a.979.979 0 00-.604-.903.977.977 0 00-1.065.213c-.006.002-.009.006-.013.009a.999.999 0 01-.707.293.997.997 0 01-.707-.293l-.707-.707a.997.997 0 01-.293-.707 1 1 0 01.293-.707l.011-.011a.98.98 0 00.211-1.068h-.002a.977.977 0 00-.902-.6C2.01 9.5 2.004 9.5 2 9.5a1 1 0 01-1-1v-1a1 1 0 011-1h.016a.977.977 0 00.903-.604h-.002a.977.977 0 00-.212-1.065c0-.006-.005-.01-.008-.013a.997.997 0 01-.293-.707c0-.265.105-.52.293-.707l.707-.707a.997.997 0 01.707-.293 1 1 0 01.707.293l.011.01a.98.98 0 001.068.213v-.003a.976.976 0 00.6-.901C6.5 2.01 6.5 2.005 6.5 2a1 1 0 011-1h1a1 1 0 011 1v.016zM8 5.5a2.5 2.5 0 010 5 2.5 2.5 0 010-5z"/></symbol><symbol viewBox="0 0 16 16" fill-rule="evenodd" clip-rule="evenodd" stroke-linejoin="round" stroke-miterlimit="2" id="icon-sidebar" xmlns="http://www.w3.org/2000/svg"><path d="M0 0h16v16.001H0z" fill="none"/><path d="M14.033 1.001a1 1 0 011 1V14a1 1 0 01-1 1h-12a1 1 0 01-1-1V2a1 1 0 011-1h12zm-.5 1.5h-11V13.5h11v-11z"/><path d="M5.751 2.502h1.5v11h-1.5z"/></symbol><symbol viewBox="0 0 16 16" fill-rule="evenodd" clip-rule="evenodd" stroke-linejoin="round" stroke-miterlimit="2" id="icon-signpost" xmlns="http://www.w3.org/2000/svg"><path d="M7.5 2H12l4 3.548L12 9H7.5v6a1 1 0 01-1 1h-1a1 1 0 01-1-1V9H1a.997.997 0 01-.707-.293A.996.996 0 010 7.999V3a1 1 0 011-1h3.5V1a1 1 0 011-1h1a1 1 0 011 1v1z"/></symbol><symbol viewBox="0 0 16 16" fill-rule="evenodd" clip-rule="evenodd" stroke-linejoin="round" stroke-miterlimit="2" id="icon-star" xmlns="http://www.w3.org/2000/svg"><path d="M7.524 1.123a.502.502 0 01.952 0c.466 1.434 1.142 3.518 1.408 4.333a.5.5 0 00.476.346h4.555a.5.5 0 01.294.904c-1.22.887-2.992 2.174-3.685 2.68a.5.5 0 00-.183.558l1.41 4.333a.5.5 0 01-.772.56l-3.684-2.68a.503.503 0 00-.588 0c-.694.505-2.467 1.792-3.686 2.68a.503.503 0 01-.588 0 .497.497 0 01-.182-.56L4.66 9.944a.5.5 0 00-.181-.559L.79 6.706a.499.499 0 01.293-.904h4.558c.216 0 .408-.14.474-.346.266-.815.944-2.9 1.408-4.333z"/></symbol><symbol viewBox="0 0 16 16" id="icon-stop" xmlns="http://www.w3.org/2000/svg"><rect x="3" y="1" width="10" height="14" rx="1"/></symbol><symbol viewBox="0 0 16 16" fill-rule="evenodd" clip-rule="evenodd" stroke-linejoin="round" stroke-miterlimit="2" id="icon-thumb-down" xmlns="http://www.w3.org/2000/svg"><g clip-path="url(#_clip1)" transform="matrix(.18522 0 0 .25394 -21.553 -59.355)"><path d="M180.07 285.973v6.837c0 2.173-2.418 3.938-5.399 3.938h-2.699c-4.476 0-8.098-2.643-8.098-5.907v-9.904l1.252-7.817H135.26c-4.47 0-8.099-2.647-8.099-5.907 0-1.698.983-3.234 2.565-4.313-3.078-.838-5.264-3-5.264-5.532 0-2.533 2.186-4.695 5.264-5.533-1.582-1.08-2.565-2.611-2.565-4.312 0-2.836 2.743-5.207 6.398-5.778-.637-.787-.999-1.709-.999-2.69 0-2.835 3.045-5.154 6.884-5.308v-.007h30.908v.098c13.633.988 24.295 9.388 24.295 19.592 0 2.847-.831 5.552-2.327 7.998l-1.992 3.981-10.258 20.564z"/></g></symbol><symbol viewBox="0 0 16 16" fill-rule="evenodd" clip-rule="evenodd" stroke-linejoin="round" stroke-miterlimit="2" id="icon-thumb-up" xmlns="http://www.w3.org/2000/svg"><g clip-path="url(#_clip1)" transform="matrix(.18522 0 0 .25394 -21.553 -59.355)"><path d="M139.036 244.515v-6.837c0-2.173 2.418-3.938 5.399-3.938h2.699c4.476 0 8.098 2.643 8.098 5.907v9.904l-1.252 7.817h29.866c4.47 0 8.099 2.647 8.099 5.907 0 1.698-.983 3.234-2.565 4.313 3.078.838 5.264 3 5.264 5.532 0 2.533-2.186 4.695-5.264 5.533 1.582 1.08 2.565 2.611 2.565 4.312 0 2.836-2.743 5.207-6.398 5.778.637.787.999 1.709.999 2.69 0 2.835-3.045 5.154-6.884 5.308v.007h-30.908v-.098c-13.633-.988-24.295-9.388-24.295-19.592 0-2.847.831-5.552 2.327-7.998l1.992-3.981 10.258-20.564z"/></g></symbol><symbol viewBox="0 0 16 16" id="icon-tick" xmlns="http://www.w3.org/2000/svg"><path d="M14.142 2.707l.707.707a1 1 0 010 1.414L7.08 12.6a1.02 1.02 0 01-.008.008l-.707.707a.995.995 0 01-.53.277l-.118.014h-.118a.996.996 0 01-.648-.291L.707 9.07a1 1 0 010-1.414l.707-.707a1 1 0 011.414 0l2.829 2.828 7.071-7.07a1 1 0 011.414 0z"/></symbol><symbol viewBox="0 0 16 16" id="icon-toggle" xmlns="http://www.w3.org/2000/svg"><path d="M14.743 7.207a1 1 0 010 1.414l-4.95 4.95a1 1 0 01-1.414 0l-.707-.707a1 1 0 010-1.414l3.535-3.536L7.672 4.38a1 1 0 010-1.414l.707-.708a1 1 0 011.414 0L14.035 6.5l.708.708z"/><path d="M8.778 7.207a1 1 0 010 1.414l-4.95 4.95a1 1 0 01-1.414 0l-.707-.707a1 1 0 010-1.414l3.535-3.536L1.707 4.38a1 1 0 010-1.414l.707-.708a1 1 0 011.414 0L8.07 6.5l.708.708z"/></symbol><symbol viewBox="0 0 16 16" fill-rule="evenodd" clip-rule="evenodd" stroke-linejoin="round" stroke-miterlimit="2" id="icon-twitter" xmlns="http://www.w3.org/2000/svg"><g transform="matrix(.18522 0 0 .25394 -21.553 -59.355)"><path d="M116.362 233.74h86.382v63.008h-86.382z" fill="none"/><clipPath id="cua"><path d="M116.362 233.74h86.382v63.008h-86.382z"/></clipPath><g clip-path="url(#cua)"><path d="M202.91 245.666a35.5 25.894 0 01-10.199 2.04c3.666-1.604 6.482-4.142 7.807-7.166a35.542 25.925 0 01-11.276 3.142 17.731 12.933 0 00-12.96-4.09c-9.806 0-17.756 5.8-17.756 12.952 0 1.015.157 2.003.46 2.951-14.757-.54-27.84-5.696-36.599-13.532a17.677 12.893 0 00-2.404 6.511c0 4.494 3.135 8.458 7.9 10.78a17.69 12.903 0 01-8.043-1.62c-.002.054-.002.109-.002.163 0 6.275 6.12 11.51 14.244 12.7a17.784 12.972 0 01-8.019.222c2.26 5.145 8.817 8.89 16.587 8.994-6.077 3.474-13.733 5.544-22.052 5.544-1.433 0-2.847-.061-4.235-.181 7.857 3.675 17.19 5.82 27.218 5.82 32.66 0 50.52-19.736 50.52-36.85 0-.562-.017-1.12-.052-1.677a36.066 26.307 0 008.86-6.703z" fill-rule="nonzero"/></g></g></symbol><symbol viewBox="0 0 16 16" id="icon-upload" xmlns="http://www.w3.org/2000/svg"><path d="M9.326 4.255a1.875 1.875 0 00-2.652 0L4.93 6H2a1 1 0 01-1-1V3a1 1 0 011-1h12a1 1 0 011 1v2a1 1 0 01-1 1h-2.929z"/><path d="M7 15a1 1 0 01-1-1v-3.999L4.758 10a1 1 0 01-1-1 1 1 0 01.293-.707L7.293 5.05a1 1 0 011.414 0l1.414 1.415 1.829 1.828a1 1 0 010 1.414 1 1 0 01-.707.293L10 10.001 10 14a1 1 0 01-1 1H7z"/></symbol><symbol viewBox="0 0 16 16" fill-rule="evenodd" clip-rule="evenodd" stroke-linejoin="round" stroke-miterlimit="2" id="icon-user" xmlns="http://www.w3.org/2000/svg"><g transform="matrix(.18522 0 0 .25394 -21.553 -59.355)"><path d="M116.362 233.74h86.382v63.008h-86.382z" fill="none"/><clipPath id="cwa"><path d="M116.362 233.74h86.382v63.008h-86.382z"/></clipPath><g clip-path="url(#cwa)"><ellipse cx="747.612" cy="122.966" rx="3.825" ry="4.027" transform="matrix(4.93989 0 0 3.42305 -3533.57 -171.429)"/><path d="M127.539 296.75c-1.582 0-3.077-.504-4.109-1.379-1.025-.874-1.473-2.032-1.23-3.17 3.039-13.05 18.61-23.017 37.349-23.017 18.74 0 34.31 9.967 37.28 23.025.242 1.123-.2 2.268-1.216 3.13-1.015.863-2.494 1.36-4.054 1.36-14.064.05-49.956.05-64.02.05z"/></g></g></symbol><symbol viewBox="0 0 16 16" fill-rule="evenodd" clip-rule="evenodd" stroke-linejoin="round" stroke-miterlimit="2" id="icon-user-disabled" xmlns="http://www.w3.org/2000/svg"><path d="M0 0h16v16.001H0z" fill="none"/><path d="M8 1.5c1.931 0 3.5 1.568 3.5 3.5S9.93 8.5 8 8.5A3.502 3.502 0 014.5 5c0-1.932 1.568-3.5 3.5-3.5zm0 1a2.501 2.501 0 000 5 2.501 2.501 0 000-5zM3.357 15a1 1 0 01-.941-1.339C3.356 11.501 5.5 9.97 8 9.97a6.006 6.006 0 015.545 3.705.96.96 0 01-.903 1.285c-2.278.04-7.008.04-9.285.04zm.002-1c2.26 0 6.931 0 9.22-.04A5.006 5.006 0 008 10.97c-2.066 0-3.84 1.255-4.64 3.03z"/></symbol><symbol viewBox="0 0 16 16" id="icon-view" xmlns="http://www.w3.org/2000/svg"><path d="M8 3c4.418 0 8 3.489 8 5s-3.582 5-8 5-8-3.489-8-5 3.582-5 8-5zm0 1a4 4 0 100 8 4 4 0 000-8z"/><path d="M8 5.5c.256 0 .504.039.737.11a1.25 1.25 0 101.653 1.654A2.5 2.5 0 118 5.5z"/></symbol><symbol viewBox="0 0 16 16" fill-rule="evenodd" clip-rule="evenodd" stroke-linejoin="round" stroke-miterlimit="2" id="icon-view-hidden" xmlns="http://www.w3.org/2000/svg"><g transform="matrix(.18522 0 0 .25394 -21.553 -59.354)"><path d="M116.362 233.74h86.382v63.008h-86.382z" fill="none"/><clipPath id="cza"><path d="M116.362 233.74h86.382v63.008h-86.382z"/></clipPath><g clip-path="url(#cza)"><path d="M192.948 254.806c6.122 3.769 9.793 7.845 9.793 10.436 0 5.954-19.333 19.69-43.19 19.69-2.495 0-4.94-.15-7.322-.425l4.946-3.603c.782.059 1.57.09 2.375.09 11.932 0 21.596-7.049 21.596-15.752 0-.583-.043-1.162-.13-1.733l11.932-8.703zm-66.795 20.876c-6.117-3.769-9.794-7.845-9.794-10.44 0-5.95 19.339-19.69 43.191-19.69 2.5 0 4.945.154 7.326.43l-4.945 3.603a31.597 31.597 0 00-2.38-.095c-11.927 0-21.596 7.053-21.596 15.752 0 .587.048 1.166.13 1.737l-11.932 8.703zm71.574-32.711c1.016-.742 1.582-1.742 1.583-2.785 0-1.045-.567-2.05-1.578-2.787-1.013-.739-2.39-1.152-3.82-1.151-1.433 0-2.804.412-3.82 1.154l-68.713 50.119c-1.016.741-1.582 1.741-1.581 2.786-.002 1.043.57 2.045 1.583 2.784 1.01.737 2.383 1.154 3.816 1.154 1.43 0 2.801-.414 3.818-1.155l68.712-50.12z"/></g></g></symbol><symbol viewBox="0 0 16 16" fill-rule="evenodd" clip-rule="evenodd" stroke-linejoin="round" stroke-miterlimit="2" id="icon-waiting" xmlns="http://www.w3.org/2000/svg"><path d="M0 0h16v16.001H0z" fill="none"/><path d="M13.5 12.814a.999.999 0 00-.382-.786l-4.5-3.541a.999.999 0 00-1.237 0l-4.5 3.54a.998.998 0 00-.381.787V14a1 1 0 001 1h9a1 1 0 001-1v-1.186zM10.657 12H5.342l2.503-1.97a.25.25 0 01.309 0L10.657 12zM2.5 3.186c0 .307.14.597.38.786l4.5 3.54a.999.999 0 001.238 0l4.5-3.54a.999.999 0 00.382-.786V2a1 1 0 00-1-1h-9a1 1 0 00-1 1v1.186zM10.657 4H5.342L4 2.944V2.5h8v.444L10.657 4z"/></symbol><symbol viewBox="0 0 16 16" fill-rule="evenodd" clip-rule="evenodd" stroke-linejoin="round" stroke-miterlimit="2" id="icon-x" xmlns="http://www.w3.org/2000/svg"><path d="M0 .002h16v16H0z" fill="none"/><path d="M9.488 6.761L15.305 0h-1.379l-5.05 5.87L4.842 0H.19l6.1 8.877-6.1 7.09h1.378l5.334-6.2 4.26 6.2h4.652L9.488 6.761zM7.601 8.956l-.619-.884-4.917-7.034h2.117l3.969 5.676.618.884 5.158 7.379H11.81L7.6 8.956z" fill-rule="nonzero"/></symbol><symbol viewBox="0 0 16 16" fill-rule="evenodd" clip-rule="evenodd" stroke-linejoin="round" stroke-miterlimit="2" id="icon-youtube" xmlns="http://www.w3.org/2000/svg"><g transform="matrix(.18522 0 0 .25394 -21.553 -59.355)"><path d="M116.362 233.74h86.382v63.008h-86.382z" fill="none"/><clipPath id="dca"><path d="M116.362 233.74h86.382v63.008h-86.382z"/></clipPath><g clip-path="url(#dca)"><path d="M200.868 249.993c1.803 4.942 1.803 15.251 1.803 15.251s0 10.31-1.803 15.252c-.993 2.726-3.917 4.873-7.631 5.602-6.73 1.324-33.72 1.324-33.72 1.324s-26.99 0-33.721-1.324c-3.714-.73-6.638-2.876-7.63-5.602-1.804-4.942-1.804-15.252-1.804-15.252s0-10.31 1.803-15.25c.993-2.727 3.917-4.874 7.63-5.603 6.732-1.324 33.722-1.324 33.722-1.324s26.99 0 33.72 1.324c3.714.729 6.638 2.876 7.63 5.602zm-50.178 24.612l22.558-9.36-22.558-9.36v18.72z"/></g></g></symbol><symbol viewBox="0 0 16 16" fill-rule="evenodd" clip-rule="evenodd" stroke-linejoin="round" stroke-miterlimit="2" id="icon-zoom-in" xmlns="http://www.w3.org/2000/svg"><g transform="matrix(.18522 0 0 .25394 -21.553 -59.355)"><path d="M116.362 233.74h86.382v63.008h-86.382z" fill="none"/><clipPath id="dda"><path d="M116.362 233.74h86.382v63.008h-86.382z"/></clipPath><g clip-path="url(#dda)"><path d="M170.13 284.1c-4.79 1.791-10.22 2.803-15.976 2.803-19.366 0-35.093-11.471-35.093-25.597 0-14.126 15.727-25.597 35.093-25.597 19.366 0 35.093 11.471 35.093 25.597 0 4.198-1.388 8.16-3.844 11.653l15.797 11.526c2.111 1.536 2.111 4.029 0 5.569l-7.634 5.568c-2.111 1.54-5.528 1.54-7.634 0l-15.803-11.523zm-15.976-42.484c-14.9 0-26.994 8.821-26.994 19.69 0 10.869 12.093 19.69 26.994 19.69s26.995-8.821 26.995-19.69c0-10.869-12.094-19.69-26.995-19.69z"/><path d="M150.108 264.163h-10.799c-2.234 0-4.05-1.32-4.05-2.95s1.816-2.96 4.05-2.96h10.799v-7.873c0-1.631 1.81-2.951 4.05-2.951 2.234 0 4.049 1.32 4.049 2.95v7.875h10.799c2.234 0 4.045 1.328 4.045 2.959s-1.81 2.95-4.045 2.95h-10.799v7.875c0 1.63-1.815 2.958-4.05 2.958-2.239 0-4.049-1.328-4.049-2.958v-7.875z"/></g></g></symbol><symbol viewBox="0 0 16 16" fill-rule="evenodd" clip-rule="evenodd" stroke-linejoin="round" stroke-miterlimit="2" id="icon-zoom-out" xmlns="http://www.w3.org/2000/svg"><g transform="matrix(.18522 0 0 .25394 -21.553 -59.355)"><path d="M116.362 233.74h86.382v63.008h-86.382z" fill="none"/><clipPath id="dea"><path d="M116.362 233.74h86.382v63.008h-86.382z"/></clipPath><g clip-path="url(#dea)"><path d="M170.13 284.1c-4.79 1.791-10.22 2.803-15.976 2.803-19.366 0-35.093-11.471-35.093-25.597 0-14.126 15.727-25.597 35.093-25.597 19.366 0 35.093 11.471 35.093 25.597 0 4.198-1.388 8.16-3.844 11.653l15.797 11.526c2.111 1.536 2.111 4.029 0 5.569l-7.634 5.568c-2.111 1.54-5.528 1.54-7.634 0l-15.803-11.523zm-15.976-42.484c-14.9 0-26.994 8.821-26.994 19.69 0 10.869 12.093 19.69 26.994 19.69s26.995-8.821 26.995-19.69c0-10.869-12.094-19.69-26.995-19.69z"/><path d="M135.263 261.21c0-1.63 1.81-2.953 4.045-2.953h29.693c2.235 0 4.056 1.324 4.056 2.954 0 1.633-1.82 2.953-4.056 2.953h-29.693c-2.235 0-4.045-1.32-4.045-2.953z"/></g></g></symbol></svg>