<svg viewBox="0 0 100 100" xmlns="http://www.w3.org/2000/svg" xml:space="preserve" style="fill-rule:evenodd;clip-rule:evenodd;stroke-linejoin:round;stroke-miterlimit:2"><path d="M0-36.467C5.374-24.188 18.828-8.501 21.011-6.755 17.884-1.192 12.594 0 12.594 0S-.626-21.669 0-36.467" style="fill:#fff;fill-rule:nonzero" transform="translate(3.3529 58.0404) scale(.23174)"/><path d="M0-37.435C4.271-24.731 17.171-7.29 19.192-5.359 15.587-.092 9.331 0 9.331 0S-1.927-22.75 0-37.435" style="fill:#fff;fill-rule:nonzero" transform="translate(1.5578 59.0132) scale(.23174)"/><path d="M0-62.356s1.982-11.868-10.688-21.207C3.293-78.713 4.639-70.984 0-62.356m-6.035 9.208S-3.417-68.82-20.147-81.15C-1.687-74.748.091-64.542-6.035-53.148m-7.034 9.873s3.253-19.475-17.538-34.797c22.941 7.956 25.15 20.639 17.538 34.797m-8.035 9.874s3.889-23.279-20.963-41.593c27.421 9.511 30.062 24.669 20.963 41.593m-36.053 52.52c-3.565 4.379-8.313 5.034-12.228 2.783-5.279-3.034 4.132-24.53 17.528-25.533 0 0-.232 16.524-5.3 22.75M189.25-144.77s-79.596 20.052-93.485 44.009C62.49-106.67 5.94-97.73 5.94-97.73s-5.575-36.73-1.434-47.04C-84.776-101.807-103.116-9.311-106.251 40.653c0 0 25.49-12.192 50.052 2.008.997-.731-16.632 31.845-34.189 39.377-.196.084 1.144.333.944.376 18.046-.651 56.842-17.033 74.669-31.207C44.41 4.147 36.29-28.665 36.29-28.665S8.993 14.902-12.6-12.529c-17.023-21.627 34.022-70.863 119.322-55.892 50.834 8.922 82.528 30.999 82.528 30.999L141.725-89.7l47.525-55.07Z" style="fill:#fff;fill-rule:nonzero" transform="translate(24.6229 40.0015) scale(.23174)"/><g><path d="M0-36.467C5.374-24.188 18.828-8.501 21.011-6.755 17.884-1.192 12.594 0 12.594 0S-.626-21.669 0-36.467" style="fill:#fff;fill-rule:nonzero" transform="rotate(-180 48.3234 20.9798) scale(.23174)"/><path d="M0-37.435C4.271-24.731 17.171-7.29 19.192-5.359 15.587-.092 9.331 0 9.331 0S-1.927-22.75 0-37.435" style="fill:#fff;fill-rule:nonzero" transform="rotate(-180 49.221 20.4935) scale(.23174)"/><path d="M0-62.356s1.982-11.868-10.688-21.207C3.293-78.713 4.639-70.984 0-62.356m-6.035 9.208S-3.417-68.82-20.147-81.15C-1.687-74.748.091-64.542-6.035-53.148m-7.034 9.873s3.253-19.475-17.538-34.797c22.941 7.956 25.15 20.639 17.538 34.797m-8.035 9.874s3.889-23.279-20.963-41.593c27.421 9.511 30.062 24.669 20.963 41.593m-36.053 52.52c-3.565 4.379-8.313 5.034-12.228 2.783-5.279-3.034 4.132-24.53 17.528-25.533 0 0-.232 16.524-5.3 22.75M189.25-144.77s-79.596 20.052-93.485 44.009C62.49-106.67 5.94-97.73 5.94-97.73s-5.575-36.73-1.434-47.04C-84.776-101.807-103.116-9.311-106.251 40.653c0 0 25.49-12.192 50.052 2.008.997-.731-16.632 31.845-34.189 39.377-.196.084 1.144.333.944.376 18.046-.651 56.842-17.033 74.669-31.207C44.41 4.147 36.29-28.665 36.29-28.665S8.993 14.902-12.6-12.529c-17.023-21.627 34.022-70.863 119.322-55.892 50.834 8.922 82.528 30.999 82.528 30.999L141.725-89.7l47.525-55.07Z" style="fill:#fff;fill-rule:nonzero" transform="rotate(-180 37.6884 29.9993) scale(.23174)"/></g></svg>