<svg xmlns="http://www.w3.org/2000/svg" viewBox="0 0 16 16"><defs><style>.cls-1{fill:#f0981b;}.cls-2{fill:#fff;}</style></defs><g id="Layer_2" data-name="Layer 2"><path class="cls-1" d="M15.56,11.87H7.7A.92.92,0,0,1,7,11.6a.88.88,0,0,1-.2-.36,1.29,1.29,0,0,1,0-.66,2.41,2.41,0,0,1,.87-1.33,4.76,4.76,0,0,1,.85-.6l.21-.12a3.6,3.6,0,0,0-1.1-.1,4.6,4.6,0,0,0-1.6.45,4.49,4.49,0,0,0-.75.48c-.3.24-.57.5-.57.5l-.49.46a5.76,5.76,0,0,1-.49.4,4.15,4.15,0,0,1-1.07.61,2.14,2.14,0,0,1-.32.07.87.87,0,0,1-.69-.18.77.77,0,0,1-.16-.74A1.68,1.68,0,0,1,2,9.65l.21-.19a4.66,4.66,0,0,1,.56-.41l.37-.23a3.62,3.62,0,0,0-2.11.41,3.54,3.54,0,0,0-.9.73A3,3,0,0,1,0,8.53,3,3,0,0,1,3,6H3.3A3.1,3.1,0,0,1,6.37,3.32a3.19,3.19,0,0,1,1.24.25A3.11,3.11,0,0,1,9.49,6.43v.08h0a2.88,2.88,0,0,1-.17.94,2.78,2.78,0,0,1,.52.2,2.33,2.33,0,0,1,1,1A2.78,2.78,0,0,1,11.14,10,3.07,3.07,0,0,1,11,11a2.92,2.92,0,0,1,2.23-.85,3,3,0,0,1,1.91,1A2.5,2.5,0,0,1,15.56,11.87Z"/><path class="cls-2" d="M11.82,9.69a2.76,2.76,0,0,0-.18-1.43A2.9,2.9,0,0,0,10.26,6.8a3.14,3.14,0,0,1,1.4-1.27,3.31,3.31,0,0,1,2.89.21,3.15,3.15,0,0,1,.88,4.46,3,3,0,0,0-2-.93A2.9,2.9,0,0,0,11.82,9.69Z"/></g></svg>