<svg xmlns="http://www.w3.org/2000/svg" viewBox="0 0 120 31"><defs><style>.cls-1{fill:#fff;}.cls-2{fill:#f0981b;}</style></defs><g id="Layer_2" data-name="Layer 2"><path class="cls-1" d="M63.72,18V9.25a5.35,5.35,0,0,1,1.37-3.79A4.6,4.6,0,0,1,68.62,4a4.76,4.76,0,0,1,3.51,1.43A4.86,4.86,0,0,1,73.54,9a4.64,4.64,0,0,1-1.4,3.39,4.55,4.55,0,0,1-3.35,1.43,4.31,4.31,0,0,1-2.73-1V11a5.66,5.66,0,0,0,1.3.91,3,3,0,0,0,1.28.27,3.07,3.07,0,0,0,2.28-.93,3.19,3.19,0,0,0,.91-2.33,3.18,3.18,0,0,0-.91-2.3,3,3,0,0,0-2.21-1A3.32,3.32,0,0,0,67.18,6a3.37,3.37,0,0,0-1.25,1.17,4.38,4.38,0,0,0-.55,2.45V18Z"/><path class="cls-1" d="M84.18,13.56H82.53V9.44a4.17,4.17,0,0,0-.88-2.78,3,3,0,0,0-2.37-1,3.07,3.07,0,0,0-2.27,1,3.19,3.19,0,0,0-.93,2.32,3.18,3.18,0,0,0,3.24,3.22A3.87,3.87,0,0,0,81.85,11v1.76a4.45,4.45,0,0,1-1.29.79,4.19,4.19,0,0,1-1.44.22,4.52,4.52,0,0,1-3.37-1.4,4.71,4.71,0,0,1-1.39-3.45A4.73,4.73,0,0,1,75.8,5.42,4.78,4.78,0,0,1,79.3,4a4.66,4.66,0,0,1,3.5,1.44,5.12,5.12,0,0,1,1.38,3.68Z"/><path class="cls-1" d="M91.39,4.17H93V9.51q0,3.57-3.1,4.17V18H88.29v-4.3q-3.23-.4-3.23-4.07V4.17h1.65V9.51a2.88,2.88,0,0,0,.62,2,2.21,2.21,0,0,0,1.74.7,2.1,2.1,0,0,0,1.72-.71,3.08,3.08,0,0,0,.6-2Z"/><path class="cls-1" d="M103.61,13.56H102V9.44a4.17,4.17,0,0,0-.88-2.78,2.93,2.93,0,0,0-2.36-1,3.08,3.08,0,0,0-2.28,1,3.19,3.19,0,0,0-.93,2.32,3.11,3.11,0,0,0,.93,2.29,3.14,3.14,0,0,0,2.32.93A3.87,3.87,0,0,0,101.27,11v1.76a4.41,4.41,0,0,1-1.28.79,4.29,4.29,0,0,1-1.45.22,4.54,4.54,0,0,1-3.37-1.4,4.75,4.75,0,0,1-1.39-3.45,4.73,4.73,0,0,1,1.44-3.47A4.81,4.81,0,0,1,98.73,4a4.64,4.64,0,0,1,3.49,1.44,5.13,5.13,0,0,1,1.39,3.68Z"/><path class="cls-1" d="M106.29,13.56h-1.65V4.17h1.65V5.83A3.23,3.23,0,0,1,109.35,4H110V5.52h-.33a3.22,3.22,0,0,0-2.54.92,4.23,4.23,0,0,0-.81,2.86Z"/><path class="cls-1" d="M120,13.56h-1.65V9.44a4.23,4.23,0,0,0-.88-2.78,3,3,0,0,0-2.37-1,3.06,3.06,0,0,0-2.27,1,3.19,3.19,0,0,0-.93,2.32,3.18,3.18,0,0,0,3.24,3.22A3.83,3.83,0,0,0,117.66,11v1.76a4.28,4.28,0,0,1-1.28.79,4.21,4.21,0,0,1-1.45.22,4.55,4.55,0,0,1-3.37-1.4,4.74,4.74,0,0,1-1.38-3.45A4.9,4.9,0,0,1,115.12,4a4.62,4.62,0,0,1,3.49,1.44A5.09,5.09,0,0,1,120,9.11Z"/><path class="cls-2" d="M70.17,29v1.47H69a6.65,6.65,0,0,1-2.23-.31,5.46,5.46,0,0,1-1.89-1.38,4.19,4.19,0,0,1-1-3,4.77,4.77,0,0,1,.47-2,5.32,5.32,0,0,1,1.5-1.83,4.78,4.78,0,0,1,3-.83h1.37V22.5h-1a3.88,3.88,0,0,0-2.69.89,3.06,3.06,0,0,0-1,2.4,3,3,0,0,0,1,2.34,3.91,3.91,0,0,0,2.66.84Z"/><path class="cls-2" d="M73.16,30.44H71.51V16.63h1.65Z"/><path class="cls-2" d="M79.26,20.87a4.66,4.66,0,0,1,3.44,1.45,4.78,4.78,0,0,1,1.42,3.49A4.63,4.63,0,0,1,82.7,29.2a4.71,4.71,0,0,1-3.44,1.43,4.81,4.81,0,0,1-3.51-1.43,4.7,4.7,0,0,1-1.45-3.49,4.59,4.59,0,0,1,1.45-3.41A4.77,4.77,0,0,1,79.26,20.87Zm0,1.63a3.16,3.16,0,0,0-2.29.93,3,3,0,0,0-1,2.28A3.21,3.21,0,0,0,79.3,29,2.94,2.94,0,0,0,81.48,28a3.09,3.09,0,0,0,.93-2.23,3.29,3.29,0,0,0-.92-2.35A3,3,0,0,0,79.26,22.5Z"/><path class="cls-2" d="M91.48,21.05h1.66v5.34A4.27,4.27,0,0,1,92,29.47a3.94,3.94,0,0,1-3,1.16,3.89,3.89,0,0,1-2.93-1.16A4.23,4.23,0,0,1,85,26.39V21.05h1.65V26a3.52,3.52,0,0,0,.62,2.21A2.13,2.13,0,0,0,89,29a2.31,2.31,0,0,0,1.17-.29,2.48,2.48,0,0,0,.9-.87,3.91,3.91,0,0,0,.37-2Z"/><path class="cls-2" d="M103.6,16.63v8.72a5.38,5.38,0,0,1-1.37,3.81,4.6,4.6,0,0,1-3.53,1.47,4.73,4.73,0,0,1-3.51-1.44,4.87,4.87,0,0,1-1.41-3.55,4.65,4.65,0,0,1,1.4-3.37,4.55,4.55,0,0,1,3.35-1.42,4.18,4.18,0,0,1,2.73,1v1.8a5.17,5.17,0,0,0-1.3-.92,3.18,3.18,0,0,0-1.28-.26,3.07,3.07,0,0,0-2.28.93,3.4,3.4,0,0,0,0,4.64,3,3,0,0,0,2.27.94,2.78,2.78,0,0,0,2.47-1.16,4.84,4.84,0,0,0,.79-2.81V16.63Z"/><path class="cls-2" d="M55.08,30.63H27.26a3.34,3.34,0,0,1-2.36-.94,3.15,3.15,0,0,1-.71-1.28,5,5,0,0,1,0-2.32,8.71,8.71,0,0,1,3.07-4.74,17.79,17.79,0,0,1,3-2.11l.74-.41a13.29,13.29,0,0,0-3.91-.37,16.07,16.07,0,0,0-5.65,1.61,14.83,14.83,0,0,0-2.66,1.7c-1.07.86-2,1.75-2,1.75-.74.69-1,1-1.74,1.65s-1.56,1.28-1.73,1.41a13.65,13.65,0,0,1-3.78,2.14A4.54,4.54,0,0,1,8.42,29,3.11,3.11,0,0,1,6,28.33a2.75,2.75,0,0,1-.57-2.62,6.2,6.2,0,0,1,1.83-2.93A9.4,9.4,0,0,1,8,22.11a17.27,17.27,0,0,1,2-1.45c.41-.27.84-.53,1.3-.8a11.05,11.05,0,0,0-1.79-.09,12.31,12.31,0,0,0-5.67,1.54A12.07,12.07,0,0,0,.61,23.88a10.54,10.54,0,0,1-.5-5A10.73,10.73,0,0,1,10.7,9.69h.43l.53,0A11,11,0,0,1,33.58,11.4v.28h0A9.54,9.54,0,0,1,33,15a8.06,8.06,0,0,1,1.84.68,8.45,8.45,0,0,1,3.45,3.52A9.81,9.81,0,0,1,39.43,24a11.33,11.33,0,0,1-.55,3.56,10.24,10.24,0,0,1,7.88-3,10.47,10.47,0,0,1,6.74,3.49A10,10,0,0,1,55.08,30.63Z"/><path class="cls-1" d="M41.85,22.92a10,10,0,0,0-.66-5,10.3,10.3,0,0,0-4.88-5.2,11.06,11.06,0,0,1,4.94-4.47c5.19-2.32,10,.58,10.24.73a11.3,11.3,0,0,1,5,7.41,11.49,11.49,0,0,1-1.83,8.38,10.54,10.54,0,0,0-7.08-3.3A10.3,10.3,0,0,0,41.85,22.92Z"/></g></svg>