<svg version="1.1" id="Layer_1" xmlns="http://www.w3.org/2000/svg" x="0" y="0" viewBox="0 0 16 16" style="enable-background:new 0 0 16 16" xml:space="preserve"><style>.st0{fill:#f0981b}</style><path class="st0" d="M.8 11.9c.3.7 1 1.5 1.1 1.6-.2.3-.5.4-.5.4s-.7-1.2-.6-2zM.4 12.1c.2.7.9 1.6 1 1.7-.2.3-.5.3-.5.3s-.6-1.2-.5-2z"/><path class="st0" d="M16 1.8s-4.3 1.1-5.1 2.4c-1.8-.3-4.8.2-4.8.2s-.3-2-.1-2.6C1.2 4.1.2 9.1 0 11.8c0 0 1.4-.7 2.7.1.1 0-.9 1.7-1.9 2.1h.1c1 0 3.1-.9 4-1.7C8.1 9.8 7.7 8 7.7 8s-1.5 2.5-2.6 1c-.9-1.2 1.8-3.8 6.5-3 2.7.5 4.4 1.7 4.4 1.7l-2.6-2.8L16 1.8zM2.7 10.7c-.2.3-.5.3-.7.2-.3-.2.2-1.3.9-1.4 0 0 0 .9-.2 1.2zm1.9-2.8s.2-1.3-1.1-2.3C5 6.1 5.1 7 4.6 7.9zm.4-.6s.2-1.1-.9-1.9c1.2.5 1.4 1.2.9 1.9zm.4-.5s.1-.8-.8-1.5c1.1.3 1.2.9.8 1.5zm.4-.5s.1-.6-.6-1.1c.7.2.8.6.6 1.1z"/></svg>