<svg viewBox="0 0 512 512" xmlns="http://www.w3.org/2000/svg" xml:space="preserve" style="fill-rule:evenodd;clip-rule:evenodd;stroke-linejoin:round;stroke-miterlimit:2"><path style="fill:#002c3e" d="M3.686 4.346h15.775v8.853H3.686z" transform="matrix(32.45728 0 0 57.83264 -119.641 -251.3456)"/><path d="M101.44 305.381c5.374 12.279 18.829 27.966 21.011 29.712-3.126 5.563-8.417 6.755-8.417 6.755s-13.22-21.669-12.594-36.467ZM93.693 308.61c4.271 12.705 17.172 30.145 19.193 32.077-3.605 5.266-9.861 5.358-9.861 5.358s-11.259-22.75-9.332-37.435Z" style="fill:#f3992e;fill-rule:nonzero" transform="matrix(1.51606 0 0 1.51606 -100.3946 -101.9837)"/><path d="M193.224 201.651s1.982-11.868-10.688-21.207c13.981 4.85 15.327 12.58 10.688 21.207Zm-6.035 9.207s2.618-15.671-14.112-28.001c18.46 6.402 20.237 16.608 14.112 28.001Zm-7.035 9.874s3.254-19.475-17.537-34.797c22.941 7.956 25.15 20.639 17.537 34.797Zm-8.035 9.874s3.89-23.279-20.962-41.593c27.421 9.511 30.062 24.669 20.962 41.593Zm-36.053 52.52c-3.565 4.379-8.312 5.034-12.227 2.783-5.279-3.034 4.131-24.531 17.527-25.533 0 0-.232 16.524-5.3 22.75Zm246.408-163.889s-79.597 20.052-93.486 44.009c-33.274-5.909-89.824 3.031-89.824 3.031s-5.575-36.73-1.434-47.04C108.447 162.2 90.107 254.695 86.972 304.66c0 0 25.49-12.192 50.053 2.008.996-.731-16.632 31.846-34.19 39.377-.196.084 1.145.333.944.376 18.047-.651 56.843-17.033 74.669-31.207 59.186-47.061 51.065-79.872 51.065-79.872s-27.296 43.567-48.889 16.136c-17.023-21.627 34.022-70.863 119.321-55.892 50.835 8.922 82.529 30.999 82.529 30.999l-47.525-52.278 47.525-55.07Z" style="fill:#f3992e;fill-rule:nonzero" transform="matrix(1.51606 0 0 1.51606 -100.3946 -101.9837)"/></svg>